<svg width="144" height="144" viewBox="0 0 144 144" fill="none" xmlns="http://www.w3.org/2000/svg">
<g id="Institute Empty" clip-path="url(#clip0_1228_244)">
<circle id="Ellipse 34" cx="72" cy="72" r="72" fill="#E6E6E6"/>
<rect id="Rectangle 160" x="26" y="40" width="26" height="3" fill="#A3A3A3"/>
<rect id="Rectangle 174" width="26" height="3" transform="matrix(-1 0 0 1 118 40)" fill="#A3A3A3"/>
<rect id="Rectangle 161" x="28" y="43" width="24" height="60" fill="#F4F4F4"/>
<rect id="Rectangle 175" width="24" height="60" transform="matrix(-1 0 0 1 116 43)" fill="#F4F4F4"/>
<rect id="Rectangle 162" x="50" y="33" width="44" height="3" fill="#777777"/>
<rect id="Rectangle 163" x="52" y="36" width="40" height="64" fill="white"/>
<rect id="Rectangle 165" x="61" y="47" width="5" height="5" fill="#777777"/>
<rect id="Rectangle 176" x="37" y="50" width="5" height="5" fill="#A3A3A3"/>
<rect id="Rectangle 179" x="102" y="50" width="5" height="5" fill="#A3A3A3"/>
<rect id="Rectangle 178" x="37" y="78" width="5" height="5" fill="#A3A3A3"/>
<rect id="Rectangle 180" x="102" y="78" width="5" height="5" fill="#A3A3A3"/>
<rect id="Rectangle 177" x="37" y="64" width="5" height="5" fill="#A3A3A3"/>
<rect id="Rectangle 181" x="102" y="64" width="5" height="5" fill="#A3A3A3"/>
<rect id="Rectangle 166" x="77" y="47" width="5" height="5" fill="#777777"/>
<path id="Polygon 1" d="M72 61L96.2487 76H47.7513L72 61Z" fill="#A3A3A3"/>
<rect id="Rectangle 167" x="52" y="76" width="40" height="23" fill="#777777"/>
<rect id="Rectangle 168" x="52" y="96" width="40" height="3" fill="#A3A3A3"/>
<rect id="Rectangle 169" x="57" y="76" width="2" height="20" fill="white"/>
<rect id="Rectangle 170" x="64" y="76" width="2" height="20" fill="white"/>
<rect id="Rectangle 171" x="71" y="76" width="2" height="20" fill="white"/>
<rect id="Rectangle 172" x="78" y="76" width="2" height="20" fill="white"/>
<rect id="Rectangle 173" x="85" y="76" width="2" height="20" fill="white"/>
<rect id="Rectangle 164" x="50" y="99" width="44" height="4" fill="#777777"/>
</g>
<defs>
<clipPath id="clip0_1228_244">
<rect width="144" height="144" fill="white"/>
</clipPath>
</defs>
</svg>
