<svg xmlns="http://www.w3.org/2000/svg" width="144" height="144" fill="none"><g clip-path="url(#a)"><circle cx="72" cy="72" r="72" fill="#F4F4F4"/><circle cx="72" cy="72" r="52" fill="#fff"/><path fill="#6D6E70" d="m21.692 64.46-1.152-.164c3.336-23.414 22.07-41.704 45.559-44.476l.135 1.155C43.27 23.687 24.954 41.568 21.692 64.46ZM67.704 123.821c-11.736-1.023-22.912-6.074-31.47-14.228-8.529-8.126-14.113-18.997-15.723-30.605l1.152-.162c1.576 11.35 7.034 21.979 15.372 29.923 8.367 7.972 19.293 12.911 30.767 13.91l-.098 1.162ZM77.661 123.746l-.118-1.159c11.315-1.152 22.068-6.16 30.277-14.098 8.191-7.918 13.556-18.463 15.106-29.692l1.153.159c-1.588 11.485-7.074 22.269-15.453 30.369-8.393 8.122-19.39 13.242-30.965 14.421ZM122.941 64.768c-3.141-23.033-21.454-41.038-44.54-43.787l.139-1.155c23.609 2.81 42.344 21.226 45.556 44.784l-1.155.158Z"/><path fill="#6D6E70" d="M72.296 108.385c-20.209 0-36.65-16.44-36.65-36.65 0-20.21 16.441-36.65 36.65-36.65 20.21 0 36.65 16.44 36.65 36.65-.002 20.21-16.443 36.65-36.65 36.65Zm0-71.421c-19.175 0-34.774 15.6-34.774 34.774 0 19.175 15.6 34.775 34.774 34.775 19.175 0 34.775-15.6 34.775-34.775 0-19.175-15.602-34.774-34.775-34.774Z"/><path fill="#D72C44" d="M67.954 14.4h1.96l4.088 6.233c.41.622.896 1.67.896 1.67h.032s-.107-1.034-.107-1.67V14.4h1.945v10.79h-1.945l-4.088-6.214c-.41-.622-.896-1.671-.896-1.671h-.032s.107 1.034.107 1.67v6.216h-1.96V14.4Z"/><path fill="#343F7A" d="M69.94 126.653s1.17 1.141 2.69 1.141c.822 0 1.565-.427 1.565-1.308 0-1.931-5.091-1.596-5.091-4.91 0-1.792 1.55-3.132 3.616-3.132 2.13 0 3.221 1.155 3.221 1.155l-.85 1.597s-1.034-.942-2.385-.942c-.911 0-1.626.533-1.626 1.29 0 1.916 5.077 1.444 5.077 4.896 0 1.717-1.308 3.16-3.555 3.16-2.4 0-3.723-1.475-3.723-1.475l1.06-1.472ZM120.792 66.368h6.459v1.685h-4.497v2.827h3.633v1.688h-3.633v2.904h4.742v1.686h-6.702v-10.79h-.002ZM22.096 73.83c.167.622.181 1.141.198 1.141h.032s.046-.533.181-1.141l1.778-7.462h2.023l-2.78 10.79h-2.265l-1.657-6.382c-.182-.7-.274-1.415-.274-1.415h-.031s-.093.715-.274 1.415l-1.657 6.382h-2.265L12.4 66.368h2.023l1.702 7.462c.136.608.182 1.141.182 1.141h.032c.014 0 .031-.516.198-1.141l1.945-7.462h1.703l1.91 7.462Z"/><path fill="#BBBDBF" d="m80.934 71.77 13.059-21.607-21.599 13.052-21.607-13.058L63.84 71.756 50.782 93.362 72.38 80.31l21.607 13.058L80.935 71.77Z"/><path fill="#F1F1F2" d="m78.425 77.812 24.511-6.045-24.5-6.042-6.045-24.511-6.042 24.5-24.511 6.044 24.5 6.042 6.045 24.512 6.042-24.5Z"/><path fill="#D72C44" d="M84.47 71.738H60.313L72.391 28.38 84.47 71.738Z"/><path fill="#4A98D0" d="M60.313 71.744H84.47L72.39 115.099 60.313 71.744Z"/><path fill="#343F7A" d="M72.36 77.492a5.915 5.915 0 1 0 0-11.83 5.915 5.915 0 0 0 0 11.83Z"/><path fill="#A6A8AB" d="m33.902 78.024-9.532 1.681.127.715 9.53-1.68-.125-.716ZM35.61 84.602l-9.095 3.31.25.685 9.094-3.31-.25-.685ZM38.383 90.785l-8.381 4.839.363.629 8.381-4.84-.363-.628ZM42.215 96.404l-7.414 6.22.468.558 7.415-6.22-.468-.558ZM47.016 101.275l-6.221 7.415.558.469 6.221-7.415-.558-.469ZM52.524 105.185l-4.839 8.381.631.365 4.84-8.382-.632-.364ZM58.63 108.145l-3.31 9.095.682.248 3.31-9.095-.683-.248ZM65.196 109.948l-1.68 9.531.718.127 1.68-9.532-.718-.126ZM79.43 109.979l-.717.126 1.68 9.531.718-.126-1.68-9.531ZM85.995 108.173l-.683.249 3.31 9.094.683-.248-3.31-9.095ZM92.148 105.228l-.631.365 4.839 8.381.631-.364-4.839-8.382ZM97.688 101.275l-.558.468 6.221 7.414.558-.469-6.221-7.413ZM102.42 96.456l-.468.558 7.413 6.221.469-.558-7.414-6.221ZM106.283 90.85l-.364.628 8.382 4.84.363-.63-8.381-4.839ZM109.122 84.65l-.25.685 9.095 3.31.249-.685-9.094-3.31ZM110.813 78.112l-.126.715 9.531 1.681.126-.715-9.531-1.68ZM120.25 62.86l-9.531 1.681.126.716 9.531-1.682-.126-.715ZM118.009 54.674l-9.095 3.31.25.685 9.094-3.31-.249-.685ZM114.337 47.009l-8.382 4.84.363.628 8.382-4.84-.363-.628ZM109.417 40.101l-7.414 6.22.468.559 7.415-6.22-.469-.559ZM103.415 34.154l-6.221 7.415.558.469 6.221-7.415-.558-.468ZM96.412 29.297l-4.839 8.382.631.364 4.84-8.381-.632-.365ZM88.677 25.789l-3.31 9.094.683.249 3.309-9.095-.682-.248ZM80.484 23.629l-1.68 9.53.718.127 1.68-9.53-.718-.127ZM64.278 23.632l-.718.126 1.68 9.531.718-.126-1.68-9.531ZM56.074 25.77l-.682.248 3.31 9.094.682-.248-3.31-9.094ZM48.368 29.278l-.632.364 4.84 8.382.63-.365-4.838-8.381ZM41.39 34.076l-.559.469 6.221 7.413.559-.468-6.221-7.414ZM35.307 40.05l-.468.558 7.413 6.221.469-.558-7.414-6.221ZM30.392 46.958l-.363.628 8.382 4.84.363-.63-8.382-4.838ZM26.766 54.607l-.25.685 9.095 3.31.25-.685-9.095-3.31ZM24.485 62.826l-.126.715 9.532 1.681.126-.715-9.532-1.681Z"/></g><defs><clipPath id="a"><path fill="#fff" d="M0 0h144v144H0z"/></clipPath></defs></svg>