<svg xmlns="http://www.w3.org/2000/svg" width="144" height="144" fill="none"><path fill="#D82041" d="M30.815 69.21v-1.393l1.053.061 4.353.254v-14.27L12 47.54v34.466l18.815-2.431V69.21Z"/><path fill="#9BD536" d="m35.4 81.621-5.428 1.205v7.58l5.429-1.705v-7.08Z"/><path fill="#7698D2" d="m40 69.542-3.779-.137-4.353-.157v12.23l4.343-.874v3.684l5.776-1.292V69.614L40 69.542Z"/><path fill="#5F6062" d="M53.063 67.075c3.237 0 5.305-1.911 5.305-5.508 0-3.552-2.113-5.462-5.305-5.462H50.68v10.97h2.383ZM47.781 53.61h5.44c4.923 0 8.137 2.922 8.137 7.957 0 5.036-3.214 8.003-8.137 8.003h-5.44V53.61ZM63.61 58.105h2.854V69.57H63.61V58.105ZM76.81 63.568c0-2.608-1.281-3.304-2.832-3.304-1.731 0-2.698 1.258-2.698 3.192 0 2 1.034 3.484 2.877 3.484 1.372 0 2.653-.787 2.653-3.372Zm-3.304 8.295c1.753 0 3.237-.742 3.237-2.788v-.674c0-.27.045-.607.045-.607h-.045c-.674 1.011-1.664 1.551-3.192 1.551-3.282 0-5.148-2.652-5.148-5.8 0-3.147 1.776-5.71 5.08-5.71 2.495 0 3.395 1.462 3.395 1.462h.067s-.022-.135-.022-.315v-.877h2.675v10.768c0 3.934-3.058 5.417-6.047 5.417-1.44 0-2.968-.404-4.07-.988l.855-2.181s1.439.742 3.17.742ZM82.194 58.105h2.855V69.57h-2.855V58.105ZM88.083 60.556H86.6v-2.27h1.55V54.98h2.788v3.304h2.608v2.27h-2.608v4.452c0 1.888 1.484 2.157 2.27 2.157.315 0 .517-.044.517-.044v2.495s-.337.067-.876.067c-1.596 0-4.766-.472-4.766-4.316v-4.81ZM99.332 67.614c1.506 0 2.585-1.618 2.585-3.012v-.27h-.495c-1.46 0-3.821.202-3.821 1.798 0 .765.562 1.484 1.731 1.484Zm2.18-5.238h.383v-.157c0-1.506-.945-2.023-2.203-2.023-1.641 0-3.147 1.101-3.147 1.101l-1.08-2.045s1.776-1.416 4.496-1.416c3.012 0 4.766 1.663 4.766 4.563v7.17h-2.63v-.943c0-.45.045-.81.045-.81h-.045c.022 0-.877 2.024-3.484 2.024-2.046 0-3.89-1.282-3.89-3.575 0-3.642 4.924-3.889 6.789-3.889ZM107.105 53.61h2.832v11.958c0 1.26.427 1.574 1.169 1.574.225 0 .428-.022.428-.022v2.495s-.428.067-.9.067c-1.573 0-3.529-.404-3.529-3.686V53.61ZM66.865 54.942a1.828 1.828 0 1 1-3.656 0 1.828 1.828 0 0 1 3.656 0ZM85.45 54.942a1.828 1.828 0 1 1-3.656 0 1.828 1.828 0 0 1 3.655 0ZM53.4 80.69c1.686 0 2.675-1.08 2.675-2.743 0-1.64-.989-2.697-2.63-2.697H50.68v5.44h2.72Zm-5.62-7.935h6.16c2.99 0 5.08 2.09 5.08 5.192 0 3.102-2.09 5.26-5.08 5.26h-3.26v5.508h-2.9v-15.96ZM60.488 77.25h2.742v1.979c0 .427-.044.809-.044.809h.044c.517-1.641 1.889-2.945 3.642-2.945.27 0 .517.045.517.045v2.81s-.292-.045-.674-.045c-1.214 0-2.585.697-3.125 2.405-.18.562-.247 1.191-.247 1.866v4.54h-2.855V77.25ZM74.24 86.557c1.844 0 3.395-1.439 3.395-3.574 0-2.113-1.55-3.574-3.394-3.574-1.866 0-3.417 1.46-3.417 3.574 0 2.135 1.55 3.574 3.417 3.574Zm-.022-9.576c3.507 0 6.317 2.495 6.317 6.002 0 3.529-2.81 6.002-6.294 6.002-3.507 0-6.317-2.473-6.317-6.002 0-3.507 2.81-6.002 6.294-6.002ZM82.412 77.25h2.742v1.327c0 .427-.045.787-.045.787h.045c.562-1.125 1.934-2.383 3.732-2.383 1.753 0 2.877.809 3.35 2.36h.044c.63-1.236 2.113-2.36 3.912-2.36 2.383 0 3.754 1.348 3.754 4.36v7.374h-2.855V81.88c0-1.304-.247-2.293-1.573-2.293-1.462 0-2.428 1.169-2.766 2.608-.112.45-.134.944-.134 1.483v5.036h-2.855V81.88c0-1.236-.203-2.293-1.551-2.293-1.484 0-2.45 1.169-2.81 2.63-.113.427-.135.944-.135 1.461v5.036h-2.855V77.25ZM102.485 77.25h2.855v11.465h-2.855V77.25ZM108.368 85.298s1.259 1.259 3.125 1.259c.809 0 1.506-.36 1.506-1.034 0-1.709-5.575-1.484-5.575-5.17 0-2.136 1.911-3.372 4.384-3.372 2.585 0 3.844 1.303 3.844 1.303l-1.057 2.114s-1.056-.99-2.81-.99c-.742 0-1.461.315-1.461 1.034 0 1.619 5.575 1.417 5.575 5.103 0 1.911-1.663 3.44-4.383 3.44-2.855 0-4.451-1.686-4.451-1.686l1.303-2ZM124.933 81.566c-.045-1.55-1.011-2.382-2.27-2.382-1.461 0-2.473.899-2.742 2.382h5.012Zm-2.203-4.585c3.305 0 5.081 2.405 5.081 5.44 0 .337-.068 1.101-.068 1.101h-7.912c.179 2.001 1.731 3.035 3.439 3.035 1.843 0 3.305-1.259 3.305-1.259l1.101 2.046s-1.754 1.64-4.608 1.64c-3.799 0-6.16-2.742-6.16-6.001 0-3.53 2.406-6.002 5.822-6.002ZM130.371 78.553c.152 0 .244-.097.244-.254 0-.161-.092-.25-.24-.25h-.221v.504h.217Zm-.609-.79h.701c.332 0 .554.213.554.536 0 .263-.18.406-.3.439v.009s.018.018.06.097l.318.61h-.434l-.286-.624h-.221v.623h-.392v-1.69Zm.576 2.175c.711 0 1.256-.582 1.256-1.32 0-.734-.545-1.316-1.256-1.316-.696 0-1.237.582-1.237 1.316 0 .738.541 1.32 1.237 1.32Zm0-3.01a1.67 1.67 0 0 1 1.662 1.69c0 .937-.738 1.693-1.662 1.693-.909 0-1.647-.757-1.647-1.693 0-.937.738-1.69 1.647-1.69ZM105.74 73.993a1.827 1.827 0 1 1-3.655 0 1.827 1.827 0 0 1 3.655 0Z"/><path fill="#D82041" d="m50.052 94.027-.206-1.256c-.025-.162-.055-.448-.055-.448h-.01s-.127.286-.216.448l-.704 1.256h1.191Zm-2.324 1.398 1.93-3.461h.375l.596 3.461h-.345l-.182-1.103h-1.394l-.61 1.103h-.37ZM52.575 92.89c.625 0 .896.354.896.354l-.201.226s-.237-.275-.68-.275c-.59 0-1.192.507-1.192 1.206 0 .473.335.783.808.783.507 0 .867-.35.867-.35l.103.281s-.39.37-.985.37c-.675 0-1.137-.42-1.137-1.054 0-.897.748-1.541 1.521-1.541ZM55.077 92.89c.625 0 .896.354.896.354l-.202.226s-.236-.275-.68-.275c-.59 0-1.191.507-1.191 1.206 0 .473.335.783.808.783.507 0 .866-.35.866-.35l.104.281s-.39.37-.985.37c-.675 0-1.138-.42-1.138-1.054 0-.897.749-1.541 1.522-1.541ZM58.044 93.928s.014-.083.014-.172c0-.394-.241-.586-.561-.586-.414 0-.827.27-1.005.758h1.552Zm-.547-1.038c.62 0 .906.379.906.895 0 .193-.074.42-.074.42h-1.9c-.015.073-.02.142-.02.21 0 .424.266.769.793.769.448 0 .807-.3.807-.3l.108.275s-.403.325-.925.325c-.68 0-1.133-.418-1.133-1.043 0-.808.606-1.552 1.438-1.552ZM58.764 94.81l.556-2.846h.336l-.547 2.802a.913.913 0 0 0-.015.152c0 .207.128.222.231.222.045 0 .074-.005.074-.005l-.064.3s-.054.01-.113.01c-.192 0-.478-.074-.478-.458a.85.85 0 0 1 .02-.177ZM61.792 93.928s.015-.083.015-.172c0-.394-.242-.586-.562-.586-.413 0-.827.27-1.004.758h1.55Zm-.547-1.038c.62 0 .906.379.906.895 0 .193-.074.42-.074.42h-1.9c-.015.073-.02.142-.02.21 0 .424.266.769.793.769.448 0 .807-.3.807-.3l.109.275s-.404.325-.926.325c-.68 0-1.133-.418-1.133-1.043 0-.808.606-1.552 1.438-1.552ZM62.895 92.949h.33l-.09.438c-.024.108-.058.216-.058.216h.01c.167-.354.497-.68.906-.68.059 0 .108.006.147.016l-.064.33a.83.83 0 0 0-.123-.01c-.532 0-.92.704-1.024 1.24l-.177.926h-.335l.477-2.476ZM64.81 95.199c.462 0 .841-.507.94-.94l.02-.09h-.143c-.414 0-1.295.045-1.295.646 0 .202.148.384.477.384Zm.846-1.305h.158a1.13 1.13 0 0 0 .034-.261c0-.246-.128-.443-.507-.443-.408 0-.748.236-.748.236l-.109-.28s.37-.257.887-.257c.492 0 .817.217.817.705 0 .083-.01.172-.03.27l-.305 1.561h-.32l.06-.285c.024-.123.053-.212.053-.212h-.01c.01 0-.305.556-.905.556-.4 0-.744-.226-.744-.625 0-.803.985-.965 1.67-.965ZM66.758 94.475l.241-1.221h-.325l.054-.286h.33l.138-.704h.33l-.143.704h.625l-.054.286h-.62l-.237 1.226a1.333 1.333 0 0 0-.024.222c0 .389.241.443.423.443.089 0 .143-.01.143-.01l-.059.3s-.059.01-.128.01c-.32 0-.719-.108-.719-.699 0-.079.01-.168.025-.27ZM68.66 91.964h.36l-.084.418h-.365l.09-.418Zm-.182.985h.335l-.483 2.476h-.335l.483-2.476ZM69.523 92.949h.325l-.064.354c-.02.113-.064.231-.064.231h.01c.128-.25.541-.645 1.093-.645.448 0 .709.217.709.64 0 .1-.015.207-.04.33l-.305 1.566h-.335l.286-1.482a1.58 1.58 0 0 0 .04-.33c0-.28-.168-.408-.424-.408-.557 0-1.044.502-1.157 1.073l-.222 1.147h-.335l.483-2.476ZM72.936 95.11c.655 0 .96-.748.96-1.314 0-.449-.27-.601-.63-.601-.63 0-.98.62-.98 1.211 0 .433.237.704.65.704Zm-.34 1.05c.478 0 .897-.232 1.015-.779l.05-.227c.014-.093.053-.197.053-.197h-.01c-.191.286-.457.454-.822.454-.586 0-.94-.39-.94-.985 0-.695.458-1.536 1.3-1.536.33 0 .68.108.788.438h.01s-.006-.055.004-.109l.054-.27h.325l-.477 2.447c-.153.788-.744 1.064-1.325 1.064-.37 0-.655-.109-.837-.207l.163-.256s.275.162.65.162ZM76.855 91.964h.34l-.674 3.461h-.34l.674-3.461ZM77.827 92.949h.325l-.064.354c-.02.113-.064.231-.064.231h.01c.128-.25.541-.645 1.093-.645.448 0 .709.217.709.64 0 .1-.015.207-.04.33l-.305 1.566h-.335l.286-1.482a1.58 1.58 0 0 0 .04-.33c0-.28-.168-.408-.424-.408-.557 0-1.044.502-1.157 1.073l-.222 1.147h-.335l.483-2.476ZM80.66 92.949h.324l-.064.354a1.5 1.5 0 0 1-.063.231h.01c.127-.25.54-.645 1.093-.645.448 0 .709.217.709.64 0 .1-.015.207-.04.33l-.305 1.566h-.335l.286-1.482a1.58 1.58 0 0 0 .039-.33c0-.28-.167-.408-.423-.408-.557 0-1.044.502-1.158 1.073l-.221 1.147h-.335l.482-2.476ZM84.195 95.184c.576 0 1.172-.532 1.172-1.211 0-.458-.325-.778-.793-.778-.59 0-1.172.526-1.172 1.196 0 .463.32.793.793.793Zm.384-2.294c.67 0 1.133.443 1.133 1.068 0 .857-.758 1.526-1.522 1.526-.674 0-1.132-.448-1.132-1.083 0-.847.748-1.511 1.521-1.511ZM86.049 92.949h.335l.325 1.826c.02.109.03.3.03.3h.01s.078-.172.152-.3l1.034-1.826h.364l-1.428 2.476h-.354l-.468-2.476ZM88.929 95.199c.463 0 .842-.507.94-.94l.02-.09h-.143c-.413 0-1.295.045-1.295.646 0 .202.148.384.478.384Zm.847-1.305h.157c.03-.133.035-.202.035-.261 0-.246-.128-.443-.508-.443-.408 0-.748.236-.748.236l-.108-.28s.37-.257.886-.257c.493 0 .818.217.818.705 0 .083-.01.172-.03.27l-.305 1.561h-.32l.059-.285c.024-.123.054-.212.054-.212h-.01c.01 0-.305.556-.906.556-.399 0-.743-.226-.743-.625 0-.803.984-.965 1.669-.965ZM90.877 94.475l.242-1.221h-.326l.055-.286h.33l.137-.704h.33l-.142.704h.625l-.054.286h-.62l-.237 1.226a1.316 1.316 0 0 0-.025.222c0 .389.242.443.424.443.088 0 .142-.01.142-.01l-.059.3s-.059.01-.128.01c-.32 0-.719-.108-.719-.699 0-.079.01-.168.025-.27ZM92.78 91.964h.359l-.084.418h-.364l.088-.418Zm-.183.985h.335l-.482 2.476h-.335l.483-2.476ZM94.337 95.184c.576 0 1.172-.532 1.172-1.211 0-.458-.325-.778-.793-.778-.59 0-1.172.526-1.172 1.196 0 .463.32.793.793.793Zm.384-2.294c.67 0 1.132.443 1.132 1.068 0 .857-.758 1.526-1.521 1.526-.675 0-1.133-.448-1.133-1.083 0-.847.749-1.511 1.522-1.511ZM96.62 92.949h.325l-.064.354c-.02.113-.064.231-.064.231h.01c.128-.25.542-.645 1.093-.645.449 0 .71.217.71.64 0 .1-.015.207-.04.33l-.305 1.566h-.335l.285-1.482a1.58 1.58 0 0 0 .04-.33c0-.28-.167-.408-.424-.408-.556 0-1.043.502-1.157 1.073l-.221 1.147h-.335l.482-2.476ZM101.062 91.964h.359l-.084.418h-.364l.089-.418Zm-.183.985h.335l-.482 2.476h-.335l.482-2.476ZM101.924 92.949h.325l-.064.354a1.417 1.417 0 0 1-.064.231h.01c.128-.25.542-.645 1.093-.645.448 0 .709.217.709.64 0 .1-.015.207-.039.33l-.305 1.566h-.335l.285-1.482c.025-.113.04-.226.04-.33 0-.28-.168-.408-.424-.408-.556 0-1.044.502-1.157 1.073l-.222 1.147h-.334l.482-2.476ZM106.474 91.964h1.95l-.064.305h-1.606l-.246 1.26h1.315l-.059.306h-1.31l-.256 1.285h1.694l-.054.305h-2.039l.675-3.461ZM109.289 95.184c.615 0 1.014-.68 1.014-1.29 0-.384-.187-.7-.616-.7-.482 0-1.029.478-1.029 1.276 0 .443.237.714.631.714Zm.384-2.294c.344 0 .654.162.763.492h.01s0-.103.019-.207l.237-1.211h.335l-.67 3.461h-.325l.049-.26c.02-.11.054-.198.054-.198h-.009a1.077 1.077 0 0 1-.902.517c-.595 0-.92-.384-.92-.994 0-.946.654-1.6 1.359-1.6ZM111.238 94.514l.3-1.565h.335l-.286 1.472a1.85 1.85 0 0 0-.034.34c0 .236.093.408.433.408.557 0 1.019-.546 1.123-1.083l.221-1.137h.335l-.482 2.476h-.33l.069-.354c.024-.114.064-.232.064-.232h-.01c-.133.246-.517.645-1.083.645-.37 0-.695-.167-.695-.64 0-.098.015-.206.04-.33ZM115.469 92.89c.625 0 .896.354.896.354l-.202.226s-.236-.275-.679-.275c-.592 0-1.192.507-1.192 1.206 0 .473.335.783.807.783.507 0 .867-.35.867-.35l.104.281s-.39.37-.985.37c-.675 0-1.138-.42-1.138-1.054 0-.897.749-1.541 1.522-1.541ZM117.245 95.199c.463 0 .843-.507.941-.94l.02-.09h-.143c-.414 0-1.295.045-1.295.646 0 .202.148.384.477.384Zm.848-1.305h.157a1.09 1.09 0 0 0 .034-.261c0-.246-.127-.443-.507-.443-.408 0-.748.236-.748.236l-.108-.28s.369-.257.886-.257c.492 0 .817.217.817.705 0 .083-.01.172-.029.27l-.306 1.561h-.32l.059-.285c.025-.123.055-.212.055-.212h-.01c.01 0-.306.556-.906.556-.399 0-.744-.226-.744-.625 0-.803.985-.965 1.67-.965ZM119.194 94.475l.241-1.221h-.325l.054-.286h.33l.138-.704h.33l-.143.704h.625l-.054.286h-.62l-.236 1.226a1.307 1.307 0 0 0-.025.222c0 .389.241.443.423.443.089 0 .143-.01.143-.01l-.059.3s-.059.01-.128.01c-.32 0-.719-.108-.719-.699 0-.079.01-.168.025-.27ZM121.096 91.964h.36l-.084.418h-.364l.088-.418Zm-.182.985h.335l-.483 2.476h-.334l.482-2.476ZM122.654 95.184c.576 0 1.172-.532 1.172-1.211 0-.458-.325-.778-.793-.778-.591 0-1.172.526-1.172 1.196 0 .463.32.793.793.793Zm.384-2.294c.67 0 1.132.443 1.132 1.068 0 .857-.758 1.526-1.521 1.526-.675 0-1.133-.448-1.133-1.083 0-.847.749-1.511 1.522-1.511ZM124.937 92.949h.325l-.064.354a1.417 1.417 0 0 1-.064.231h.01c.128-.25.542-.645 1.093-.645.448 0 .709.217.709.64 0 .1-.015.207-.039.33l-.305 1.566h-.335l.285-1.482c.025-.113.04-.226.04-.33 0-.28-.168-.408-.424-.408-.556 0-1.044.502-1.157 1.073l-.222 1.147h-.334l.482-2.476Z"/></svg>